<?xml version="1.0" encoding="UTF-8" standalone="yes"?>
<svg width="1024px" height="1024px" viewBox="0 0 20480 20480" preserveAspectRatio="xMidYMid meet" version="1.2" baseProfile="tiny-ps" xmlns="http://www.w3.org/2000/svg">
  <title>bimi-svg-tiny-12-ps</title>
  <g fill="#fffefa">
    <path d="M0 10240 l0-10240 10240 0 10240 0 0 10240 0 10240-10240 0-10240 0 0-10240z m4955 7182 c114-31 202-98 252-194 24-46 27-64 27-143 0-83-3-94-33-150-19-33-55-80-80-104-45-43-153-101-188-101-9 0-31-5-49-12-43-15-156 5-244 44-70 31-156 111-190 178-32 63-46 152-31 202 24 80 72 162 112 193 22 17 45 35 52 40 24 21 116 55 149 55 18 0 40 5 48 10 18 12 92 5 175-18z m9240 13 c42-8 101-26 131-39 58-27 164-124 164-150 0-9 4-16 8-16 17 0 37-87 35-155-4-151-115-288-273-334-25-7-55-18-66-23-31-14-169 1-224 24-60 26-76 34-88 46-7 6-16 12-20 12-11 0-66 53-89 87-58 82-82 221-49 289 8 16 21 45 30 64 43 93 190 190 289 190 14 0 29 5 32 10 8 13 29 13 120-5z m-10175-16 c58-20 63-28 43-83-16-43-20-47-43-40-14 4-90 8-170 8-141 1-147 0-202-28-79-40-103-88-103-206 0-73 4-90 24-120 68-98 136-125 306-117 61 3 124 8 140 12 26 6 31 3 42-22 27-66 26-69-19-82-24-7-53-17-66-22-33-13-204-11-259 3-72 18-153 65-201 115-50 52-102 148-102 189 0 16-4 35-9 43-21 32 45 190 103 246 70 68 137 102 226 116 73 10 246 4 290-12z m2330-344 l0-365-70 0-70 0-2 153 c-2 83-1 187 1 230 l3 77-44 0 c-42 0-47-3-158-114-320-319-362-356-396-356-68 0-64-25-64 371 l0 359 70 0 70 0 0-225 0-225 39 0 c38 0 48 8 266 224 125 124 237 227 249 229 11 2 40 5 64 6 l42 1 0-365z m950 341 c61-23 106-69 126-129 22-65 14-124-22-177-25-37-44-50-126-91-10-5-49-9-87-9-39 0-73-4-76-10-4-6-63-10-145-10-138 0-139 0-159-26-13-16-21-41-21-64 0-23 8-48 21-64 l20-26 265 0 c164 0 273-4 285-10 13-8 19-21 19-45 0-62-22-67-313-63 l-252 3-52 27 c-51 27-78 57-101 111-38 87 21 219 110 247 24 7 47 17 53 22 5 4 57 8 116 8 61 0 111 4 114 10 3 6 51 10 109 10 121 0 127 4 134 83 3 42 0 57-16 77 l-20 25-296 9-296 9 0 47 c0 26 3 50 8 54 4 5 131 6 282 3 224-3 283-7 320-21z m854-18 c3-17 6-151 6-299 l0-269 164 0 c185 0 189-1 184-72 l-3-43-405 0-405 0-3 57-3 58 168 2 167 3-3 292 c-1 161-1 296 2 300 3 4 32 6 65 5 58-4 60-5 66-34z m797 20 c7-13 15-71 17-130 l5-108 112 0 c124 0 120-2 185 90 14 19 30 40 35 46 6 6 28 34 50 62 l40 51 63 1 c34 0 62-4 62-8 0-5-9-19-20-32-11-13-20-26-20-29 0-3-10-17-23-31-49-54-77-105-77-142 0-32 3-38 20-38 18 0 64-26 95-55 36-33 75-119 75-168 0-38-41-116-81-151-68-60-101-66-396-66 l-266 0 6 257 c4 141 7 305 7 365 l0 108 50 0 c41 0 51-4 61-22z m1468 6 c36-9 68-20 71-23 3-3 22-15 44-26 21-11 43-30 49-42 6-13 13-23 17-23 10 0 41-64 58-120 9-30 16-119 19-262 l5-218-65 0-65 0-4 208 c-6 249-18 309-75 359-45 39-93 48-210 40-125-9-176-47-196-144-5-26-11-141-14-255 l-4-208-60 0-59 0 0 205 c0 284 15 343 110 436 82 80 233 109 379 73z m1215-8 c32-9 61-18 64-20 2-3-6-27-19-53-20-41-28-47-49-44-79 11-287 11-328-1-108-32-172-137-157-261 8-75 23-105 74-148 58-50 108-61 253-56 67 3 135 8 149 12 24 6 28 2 47-39 28-59 28-64-5-71-16-4-36-10-45-16-23-12-293-12-316 0-9 5-44 22-76 37-65 30-146 106-177 165-30 60-49 147-43 193 10 65 54 146 106 199 53 53 157 107 228 119 66 10 226 1 294-16z m876-281 l0-305 183-2 182-3 3-57 3-58-416 0-415 0 0 54 c0 40 4 55 16 60 9 3 85 6 170 6 l154 0 0 299 0 300 48 4 c26 2 53 4 60 5 9 2 12-65 12-303z m858-57 l-3-363-57-3-58-3 0 366 0 365 60 0 60 0-2-362z m1657 255 c4-59 5-163 1-230 l-7-123 35 0 c32 0 53 18 251 213 119 116 230 220 248 230 41 22 113 23 121 1 3-9 6-173 6-365 l0-349-76 0-77 0 8 188 c14 302 16 276-27 280-36 3-43-3-270-228-241-240-283-271-325-249 l-23 12 0 358 0 358 53 4 c28 2 57 4 64 5 7 1 13-33 18-105z m1580 85 c61-14 148-93 158-147 23-115-37-214-153-250-19-6-129-15-244-21-194-10-211-12-228-32-23-26-24-105-2-136 15-22 18-22 283-22 302 0 305 0 299-65 l-3-40-55-7 c-97-11-442-8-495 5-97 23-135 58-165 154-18 59 2 125 55 178 61 61 101 71 340 84 199 10 211 12 229 33 24 30 17 123-11 143-23 17-95 23-375 31 l-228 6 0 54 0 54 273-5 c149-4 294-11 322-17z m830-2218 c3-5 25-10 49-10 114 0 365-64 515-131 35-16 70-29 77-29 7 0 14-3 16-8 2-4 37-24 78-44 87-44 129-68 148-85 7-7 16-13 20-13 4 0 22-14 41-30 18-17 37-30 42-30 11 0 59-49 59-61 0-11-65-83-240-269-65-69-136-146-158-172 l-40-47-30 27 c-94 86-337 188-527 221-83 15-415 18-440 4-11-6-40-16-65-23-107-28-270-109-345-170-81-67-225-238-225-269 0-6-3-11-7-11-7 0-42-69-64-125-73-188-90-432-44-624 25-102 32-122 82-231 22-49 68-126 83-140 3-3 17-21 30-40 26-36 130-138 158-154 9-5 26-18 37-28 28-27 199-111 265-131 109-34 158-40 335-44 179-4 208-1 340 37 119 34 317 122 353 157 7 7 17 13 21 13 4 0 19 9 31 20 l24 21 35-38 c20-22 52-59 72-83 21-25 64-74 98-109 34-34 61-66 61-70 0-3 36-44 80-91 44-47 80-88 80-92 0-9-25-33-68-66-21-15-39-29-42-32-3-3-27-20-55-38-27-17-56-36-63-43-18-15-296-149-310-149-6 0-45-11-85-25-121-40-353-75-502-75-113 0-320 18-395 34-87 18-175 41-240 63-118 39-353 157-398 201-7 6-17 12-21 12-5 0-24 12-43 28-19 15-48 36-63 47-83 57-260 248-335 360-19 28-36 52-39 55-6 5-27 44-86 160-43 85-61 126-75 175-6 22-15 49-20 60-13 32-39 143-55 239-17 98-21 426-6 441 5 6 11 30 14 55 14 115 70 297 127 406 16 32 30 64 30 71 0 7 3 13 8 13 4 0 18 23 31 50 14 28 29 50 33 50 4 0 8 5 8 11 0 13 56 94 88 127 12 12 22 27 22 32 0 14 225 236 260 257 16 9 30 21 30 25 0 4 5 8 11 8 6 0 29 15 52 33 23 19 58 43 77 53 19 10 37 22 40 25 6 7 215 109 224 109 3 0 25 8 49 19 49 22 86 35 142 49 22 6 59 15 81 21 23 6 52 11 66 11 13 0 28 4 34 10 21 21 417 39 429 20z m-12884-69 l24-19-1-266 c0-265 0-266-24-291 l-23-25-689 0-688 0 0-37 c0-28 13-57 50-113 27-41 54-80 59-86 4-5 14-21 21-35 7-13 16-26 19-29 4-3 19-26 34-52 15-26 33-53 41-60 7-8 21-27 30-43 15-28 75-117 95-141 4-5 14-21 21-34 7-13 17-29 22-34 5-6 23-33 40-61 18-27 35-52 39-55 3-3 12-16 19-29 7-14 17-30 22-35 5-6 23-33 41-61 17-27 35-54 39-60 4-5 31-46 60-90 29-44 56-81 60-83 4-2 8-8 8-13 0-9 135-214 150-229 3-3 11-17 19-32 8-16 18-28 23-28 4 0 8-5 8-11 0-10 174-273 197-297 6-6 15-21 18-32 3-11 10-20 14-20 5 0 14-13 21-30 7-16 16-30 20-30 4 0 13-13 20-30 7-16 16-30 21-30 4 0 11-9 14-20 3-11 12-26 18-32 7-7 27-35 45-63 18-27 37-57 42-65 5-8 24-37 42-65 18-27 41-59 50-69 16-17 18-40 18-165 0-128-3-150-20-178 l-20-33-1194 0-1195 0-28 24-28 24-3 238 c-2 131-1 253 3 272 4 23 16 39 38 52 31 19 56 20 710 20 l677 0 0 39 c0 22-4 41-8 43-7 2-424 624-517 770-5 8-43 63-82 121-40 59-73 111-73 116 0 5-4 11-9 13-5 2-32 39-60 83-28 44-54 85-58 90-39 53-73 105-73 113 0 6-3 12-7 14-12 5-193 275-193 287 0 6-4 11-9 11-5 0-14 14-21 30-7 17-16 30-20 30-4 0-13 14-20 30-7 17-16 30-20 30-4 0-13 14-20 30-7 17-16 30-20 30-4 0-13 14-20 30-7 17-16 30-20 30-4 0-13 14-20 30-7 17-16 30-20 30-3 0-13 12-21 28-8 15-22 36-31 46-10 11-18 26-18 33 0 7-4 13-8 13-5 0-14 11-20 25-7 14-17 31-22 38-6 7-24 32-40 57-30 45-30 46-30 196 0 83 3 154 7 157 3 4 556 7 1229 7 1189 0 1222-1 1245-19z m2552 8 c14-6 30-22 36-36 8-17 11-208 11-631 0-587 1-608 20-632 11-14 20-29 20-33 0-5 14-28 30-52 17-24 30-48 30-54 0-6 4-11 8-11 5 0 14-11 20-25 7-14 17-31 22-38 6-7 37-55 70-107 33-52 64-100 70-107 5-7 10-15 10-18 0-3 18-33 40-65 22-32 40-64 40-69 0-6 4-11 9-11 5 0 14-13 21-30 7-16 16-30 21-30 4 0 11-9 14-20 3-11 12-26 18-33 7-7 21-28 31-47 11-19 57-92 102-162 46-69 89-138 95-152 7-14 16-26 21-26 4 0 8-5 8-11 0-5 32-57 70-115 39-57 70-106 70-109 0-5 75-125 88-141 5-5 15-21 22-34 7-13 17-29 22-34 19-23 88-137 88-146 0-4 3-10 8-12 11-5 58-77 86-133 22-43 23-53 12-70-13-19-25-20-382-20 l-368 0-46 75 c-25 41-57 95-70 120-14 25-27 47-30 50-9 8-110 180-110 187 0 3-6 14-14 22-7 9-25 36-38 61-39 71-72 125-78 130-3 3-17 26-30 53-14 26-28 47-32 47-5 0-8 5-8 10 0 6-31 62-70 126-38 64-70 119-70 121 0 2-13 24-30 48-16 24-30 46-30 48 0 3-18 37-41 76-39 68-42 71-78 71 l-37 0-156-262 c-86-145-166-279-177-298-12-19-37-62-57-95-20-33-42-69-48-80-21-37-249-420-280-468 l-30-47-360 2-360 3-16 28 c-14 27-13 31 24 99 32 59 82 141 146 238 51 78 90 142 90 150 0 4 3 10 8 12 4 2 27 35 50 73 24 39 72 115 108 170 36 55 68 108 71 118 3 9 9 17 13 17 4 0 12 11 18 24 9 21 98 163 119 192 4 5 13 19 19 30 31 55 40 70 57 88 9 11 17 26 17 33 0 7 5 13 10 13 6 0 10 4 10 10 0 8 28 55 90 150 5 8 35 56 67 105 31 50 75 119 98 155 23 36 48 76 55 90 7 14 16 27 20 30 3 3 21 28 39 56 l33 52 2 598 c1 631 1 630 47 673 22 20 32 21 300 21 183 0 286-4 302-11z m2640-1 c12-6 32-23 44-37 l23-26 0-552 0-553 208 0 207 0 26 43 c15 23 35 58 44 77 10 19 21 37 25 40 3 3 20 30 37 60 16 30 54 96 83 145 29 50 61 106 72 125 11 19 32 53 47 75 14 22 33 54 41 70 8 17 27 49 42 72 15 23 28 44 28 47 0 6 89 160 126 216 12 19 35 60 51 90 15 30 42 70 60 88 l32 32 336 0 c337 0 375-4 375-35 0-14-18-53-30-65-3-3-11-15-17-27-7-13-19-33-25-45-7-13-15-25-18-28-3-3-33-50-65-104-33-55-69-114-80-132-11-18-40-65-65-106-24-40-47-75-50-78-3-3-16-25-29-50-14-25-27-47-31-50-5-4-78-123-137-225-10-16-20-32-23-35-5-4-56-87-117-188-12-20-22-54-23-75 0-32 4-39 28-48 52-21 187-92 227-119 58-40 149-131 201-202 42-57 114-195 114-218 0-6 4-18 9-28 10-19 24-72 40-150 14-69 14-323 0-376-6-22-15-59-21-81-20-77-50-157-77-208-36-69-55-101-61-107-3-3-17-21-30-40-31-45-155-168-200-200-19-13-44-32-54-42-11-10-26-18-33-18-7 0-13-3-13-7 0-13-129-70-205-91-38-11-90-26-115-33-34-10-230-13-819-16-688-3-776-2-797 12 l-24 15 0 1574 0 1573 25 27 24 26 281 0 c194 0 288-4 303-12z m5047 2 c0-5 6-10 13-10 7 0 21-16 30-35 14-30 17-67 16-223-1-216-8-282-33-308-28-28-157-33-853-33 l-623-1 0-360 0-360 608 0 c489-1 610-3 625-14 15-12 17-37 17-273 0-203-3-263-13-271-9-8-202-13-618-16-332-3-607-5-611-5-5-1-8-154-8-341 l0-340 720 0 c524 0 726-3 745-12 l25-11 0-251 c0-256-5-303-36-334-16-16-83-17-1056-20 l-1039-2-24 24-25 25 0 1555 c0 1122 3 1562 11 1580 6 13 21 29 33 34 29 14 2096 16 2096 2z m-5170-4469 c198-31 284-48 408-81 478-128 840-295 1452-672 63-39 124-76 135-82 90-53 749-494 945-633 290-206 705-515 829-617 40-34 101-83 134-109 60-47 233-195 406-347 47-41 100-86 118-100 71-56 351-288 398-329 123-109 203-270 205-409 0-96-71-256-153-343-78-83-134-120-232-154-159-54-241-14-1080 520-360 229-432 274-630 398-386 240-857 527-915 557-45 23-46 25-60 170-15 150-36 206-135 351-125 183-315 311-570 387-252 75-677 79-1180 11-127-17-252-33-280-36-57-5-514-57-650-74-294-36-605-102-855-181-276-87-279-89-730-281-85-36-208-84-272-107-159-57-178-77-178-191 0-91 16-137 58-166 36-24 166-24 237-1 28 10 82 27 120 39 116 36 219 77 373 145 311 139 454 189 707 249 315 75 473 105 650 125 55 6 137 15 183 21 164 18 259 29 362 39 58 6 233 29 390 50 366 50 528 64 666 56 210-11 402-80 537-191 90-74 177-194 177-243 0-10 3-22 8-26 20-20 28-125 14-191-18-94-53-156-125-230-114-115-215-166-457-233-112-31-469-96-755-138-862-125-1196-206-1588-385-206-94-261-127-471-285-208-156-308-220-491-315-227-117-418-189-693-259-281-71-392-84-737-85-241 0-323 4-415 18-376 59-675 140-985 267-347 143-533 229-696 323-53 31-138 76-188 101-202 98-334 242-347 375-7 66 15 141 121 426 37 99 80 218 97 265 67 187 161 427 250 635 11 28 27 64 34 80 11 26 161 404 315 796 59 148 91 197 155 229 73 38 104 31 287-58 294-145 398-172 676-180 353-9 632 51 1066 229 74 30 187 73 420 159 77 28 154 58 170 65 17 7 50 22 75 33 25 11 90 39 145 62 55 23 118 50 140 60 324 147 625 261 955 364 171 54 384 98 645 135 119 17 167 19 435 15 183-2 277-8 370-23z m1965-2836 c70-43 138-84 440-263 88-53 216-129 284-170 68-41 138-82 155-92 17-9 69-41 116-70 159-99 345-212 380-232 19-11 58-35 85-53 74-47 157-99 177-110 10-5 87-53 171-106 83-53 215-135 292-182 77-47 150-93 163-102 l22-16 0-1362 c0-1538 8-1382-81-1499-78-101-301-387-393-501-49-62-107-137-130-167-22-30-43-57-46-60-3-3-21-25-40-50-19-25-37-47-40-50-3-3-88-111-188-240-101-129-188-242-195-250-7-8-30-37-50-65-56-73-114-133-136-140-43-13-88 21-191 147-57 67-120 143-140 168-21 25-55 68-76 96-44 58-94 120-140 173-47 56-299 371-490 616-115 148-165 217-226 316-74 119-68-64-68 2104 l0 1954 23 12 c25 13 133 104 159 134 10 11 30 39 45 62 16 24 33 43 38 43 6-1 42-21 80-45z m-695-2248 l0-1864-107-6 c-138-9-1098-9-1236 0 l-107 6 0 1721 0 1722 98 18 c53 10 117 22 142 27 68 13 157 29 233 39 37 6 100 15 140 20 39 6 101 15 137 20 58 7 326 59 420 80 73 17 194 51 224 65 17 7 37 14 44 14 9 1 12-378 12-1862z m-1800-751 c0-2164-4-2538-30-2637-21-78-110-166-194-192-58-17-2213-17-2300 1-129 26-215 85-262 180 l-29 57-3 1833 c-1 1007 1 1832 5 1832 35 0 294 48 516 97 l27 6 0-212 0-211 265 0 265 0 2 306 3 305 95 51 c193 102 420 245 640 403 302 216 521 321 805 385 28 6 66 15 85 20 46 12 71 17 93 19 16 1 17-112 17-2243z"/>
    <path d="M4723 17316 c-110-30-173-114-173-231 0-78 24-136 74-179 50-43 99-56 211-56 84 0 108 4 150 24 28 13 58 32 67 42 29 33 58 114 58 161 0 55-24 141-48 169-57 68-221 102-339 70z"/>
    <path d="M14038 17311 c-70-10-139-52-167-102-31-54-30-209 0-259 25-41 38-52 99-82 39-19 61-22 160-23 107 0 118 2 160 26 60 36 77 56 101 120 15 42 18 67 13 109-12 105-50 161-132 196-44 18-158 25-234 15z"/>
    <path d="M8970 16929 l0-121 123 6 c265 13 307 19 328 45 21 26 26 92 9 135-18 49-51 56-265 56 l-195 0 0-121z"/>
    <path d="M9810 12961 l0-450 258 5 c470 8 509 12 603 59 41 21 139 119 139 140 0 8 4 15 8 15 4 0 14 21 21 48 7 26 17 60 22 76 5 16 9 60 9 97 0 166-80 327-191 385-95 49-334 74-716 74 l-153 0 0-449z"/>
    <path d="M12777 6683 c-2-5-2-135 1-291 l4-282 312 2 311 3 3 279 c2 217-1 281-10 288-16 10-615 11-621 1z"/>
    <path d="M11660 6405 l0-275 73-1 c118-2 315-9 430-16 l107-6 0 286 0 287-305 0-305 0 0-275z"/>
    <path d="M12782 5413 l3-286 280-4 c154-2 295-1 313 2 l32 6 0 284 0 285-315 0-315 0 2-287z"/>
    <path d="M11650 5400 l0-270 310 0 310 0 0 270 0 270-310 0-310 0 0-270z"/>
    <path d="M11659 4703 c0-5-1-140-2-300 l-2-293 308 0 307 0 0 300 0 300-305 0 c-168 0-305-3-306-7z"/>
    <path d="M12790 4410 l0-300 305 0 305 0 0 300 0 300-305 0-305 0 0-300z"/>
    <path d="M9820 6411 l0-269 168-6 c92-3 237-5 322-3 l155 3 6 259 c3 143 3 266 1 273-3 9-78 12-328 12 l-324 0 0-269z"/>
    <path d="M9835 5400 l0-270 323 0 322 0 0 233 c0 127-3 249-6 270 l-7 37-316 0-316 0 0-270z"/>
    <path d="M9840 4385 l0-275 320 0 320 0 0 259 c0 143-3 266-6 275-5 14-43 16-320 16 l-314 0 0-275z"/>
    <path d="M7980 5895 l0-305 275 0 275 0 0 305 0 305-275 0-275 0 0-305z"/>
    <path d="M6820 4890 l0-300 265 0 265 0 0 300 0 300-265 0-265 0 0-300z"/>
    <path d="M7980 4885 l0-305 275 0 275 0 0 305 0 305-275 0-275 0 0-305z"/>
    <path d="M6820 3883 l0-308 262 1 263 2 3 306 2 306-265 0-265 0 0-307z"/>
    <path d="M7982 3883 l3-308 273-3 272-2 0 310 0 310-275 0-275 0 2-307z"/>
    <path d="M6820 2900 l0-310 265 0 265 0 0 310 0 310-265 0-265 0 0-310z"/>
    <path d="M7987 3203 c-4-3-7-143-7-310 l0-303 275 0 275 0 0 310 0 310-268 0 c-148 0-272-3-275-7z"/>
  </g>
  <g fill="#f4c554">
    <path d="M9239 10736 c-2-2-94-6-204-9-110-4-223-10-250-16-28-5-84-14-125-21-191-30-379-72-520-116-330-103-631-217-955-364-22-10-85-37-140-60-55-23-120-51-145-62-25-11-58-26-75-33-16-7-93-37-170-65-233-86-346-129-420-159-423-174-720-239-1036-228-247 8-364 40-649 180-153 75-168 81-230 81-82 1-147-29-190-87-16-22-51-96-79-166-154-392-304-770-315-796-7-16-23-52-34-80-89-209-183-449-250-635-17-47-62-170-100-275-113-305-126-352-119-448 6-96 27-143 99-222 68-75 144-130 249-181 50-25 135-70 188-101 163-94 349-180 696-323 310-127 609-208 985-267 94-15 175-18 445-18 378 1 480 12 767 85 275 70 466 142 693 259 183 95 283 159 491 315 210 158 265 191 471 285 392 179 726 260 1588 385 286 42 643 107 755 138 242 67 343 118 457 233 74 76 106 135 128 241 14 67 15 90 4 154-6 41-16 79-20 85-5 5-9 17-9 27 0 49-87 169-177 243-37 30-107 74-157 98-79 39-113 50-211 74-52 12-170 22-265 22-145 1-297-13-630-59-157-21-332-44-390-50-103-10-198-21-362-39-46-6-128-15-183-21-177-20-335-50-650-125-253-60-396-110-707-249-154-68-257-109-373-145-38-12-92-29-119-38-66-22-144-22-178 1-36 24-58 74-58 135 0 80 32 109 178 161 64 23 187 71 272 107 451 192 454 194 730 281 249 79 560 145 855 181 218 27 472 55 585 65 36 3 92 11 125 16 354 59 809 90 1020 70 196-18 218-22 320-52 255-76 445-205 570-387 99-145 120-201 135-351 14-145 15-147 60-170 58-30 529-317 915-557 198-124 270-169 630-398 701-446 817-511 959-536 74-13 148-1 233 37 190 84 334 302 333 506-1 169-72 321-205 439-47 41-327 273-398 329-18 14-71 59-118 100-173 152-346 300-406 347-33 26-94 75-134 109-124 102-539 411-829 617-196 139-855 580-945 633-11 6-72 43-135 82-518 319-849 483-1210 600-312 101-547 149-875 177-196 17-180 16-186 11z"/>
    <path d="M11447 7882 c-20-31-45-66-55-77-26-30-134-121-159-134 l-23-12 0-1984 c0-2201-6-2015 68-2134 61-99 111-168 226-316 191-245 443-560 490-616 46-53 96-115 140-173 21-28 55-71 76-96 20-25 83-101 140-168 67-82 113-129 136-138 40-17 97-18 125-3 23 12 74 67 127 136 20 26 42 55 49 63 7 8 94 121 195 250 100 129 185 237 188 240 3 3 21 25 40 50 19 25 37 47 40 50 3 3 24 30 46 60 23 30 81 105 130 167 92 114 315 400 393 501 89 117 81-43 81 1529 l0 1392-22 16 c-13 9-86 55-163 102-77 47-209 129-292 182-84 53-161 101-171 106-20 11-103 63-177 110-27 18-66 42-85 53-35 20-221 133-380 232-47 29-99 61-116 70-17 10-87 51-155 92-68 41-196 117-284 170-260 154-364 217-465 278-52 32-97 59-100 59-3 1-22-25-43-57z m1921-1230 c9-7 12-65 10-258 l-3-249-282-3-282-2-3 252 c-2 139-2 256 0 261 4 10 544 9 560-1z m-1128-258 l0-256-77 8 c-43 5-121 9-173 9-52 0-141 2-197 3 l-103 2 0 245 0 245 275 0 275 0 0-256z m1140-978 l0-254-22-5 c-13-4-140-4-283-1 l-260 5-3 254-2 255 285 0 285 0 0-254z m-1140-16 l0-240-280 0-281 0 3 240 3 240 278 0 277 0 0-240z m0-990 l0-270-277 0-278 0 2 263 c1 144 2 265 3 270 0 4 124 7 275 7 l275 0 0-270z m1130 0 l0-270-275 0-275 0 0 270 0 270 275 0 275 0 0-270z"/>
    <path d="M10875 7491 c-10-8-180-62-255-81-19-5-53-13-75-18-94-23-434-81-595-102-123-16-277-42-350-60-19-5-70-14-113-21 l-77-13 2-1755 3-1756 750 0 750 0 3 1908 c2 1832 1 1907-16 1907-10 0-22-4-27-9z m-433-851 c2-5 1-113-2-240 l-5-231-180-3 c-99-2-231-1-292 2 l-113 5 0 129 c0 84 4 127 10 123 6-4 10 12 10 42 0 35-3 44-10 33-7-11-10-6-10 22 0 20 5 40 10 43 6 3 10 15 10 26 0 10-4 19-10 19-5 0-10 9-10 20 0 20 7 20 294 20 185 0 296-4 298-10z m2-1037 c3-21 6-129 6-240 l0-203-292 0-293 0 0 240 0 240 286 0 286 0 7-37z m0-989 c3-9 6-119 6-245 l0-229-290 0-290 0 0 245 0 245 284 0 c250 0 285-2 290-16z"/>
    <path d="M9025 7109 c-22-6-56-14-75-19-19-5-57-14-85-20-284-64-503-169-805-385-129-93-319-219-433-287-130-79-364-198-387-198-10 0-23-7-30-15-11-13-5-15 49-15 l61 0 0-275 0-275-235 0-235 0 0 221 0 221-22-6 c-107-32-525-116-581-116-4 0-6-838-5-1862 l3-1863 29-57 c45-92 131-152 252-179 69-15 2165-25 2292-10 130 14 206 63 258 164 39 74 41 210 43 2645 l1 2342-27-1 c-16-1-46-5-68-10z m-525-1214 l0-275-245 0-245 0 0 275 0 275 245 0 245 0 0-275z m-1180-1005 l0-270-235 0-235 0 0 270 0 270 235 0 235 0 0-270z m1180-5 l0-275-245 0-245 0 0 275 0 275 245 0 245 0 0-275z m-1182-1000 l-3-275-233-3-232-2 0 278 0 277 235 0 235 0-2-275z m1182-5 l0-280-242 3-243 3-3 277-2 277 245 0 245 0 0-280z m-1180-980 l0-280-235 0-235 0 0 280 0 280 235 0 235 0 0-280z m1180 0 l0-280-246 0-245 0 2 273 c0 149 3 275 6 280 2 4 112 7 244 7 l239 0 0-280z"/>
  </g>
  <g fill="#141313">
    <path d="M3786 17472 c-2-1-28-4-59-7-97-9-179-48-254-121-61-59-123-220-109-282 4-15 9-43 12-62 9-53 58-144 106-193 51-53 132-98 208-116 62-14 283-11 341 6 90 26 103 42 80 98-32 73-42 95-50 99-4 3-37-4-72-15-123-38-279-17-345 46-72 69-88 158-46 246 19 38 34 52 80 75 53 27 64 29 172 28 63 0 135-5 159-11 25-6 49-9 55-7 6 2 24 37 39 76 l28 72-22 17 c-13 9-39 22-58 27-62 19-254 36-265 24z"/>
    <path d="M4758 17475 c-4-4-25-9-48-11-39-3-133-38-157-59-7-5-30-23-52-40-39-29-85-109-110-186-23-72-8-198 32-275 32-62 119-142 189-174 37-16 79-30 92-30 14 0 27-4 31-9 7-12 165-8 220 6 119 28 218 104 275 208 27 50 33 75 39 150 3 50 2 104-3 120-44 148-133 236-283 278-68 19-214 33-225 22z m142-189 c104-30 148-71 171-162 11-47 10-57-10-107-26-64-49-88-111-116-53-24-164-28-224-7-80 28-146 114-146 191 0 136 171 244 320 201z"/>
    <path d="M14045 17470 c-3-5-18-10-32-10-99 0-246-97-289-190-9-19-22-48-30-64-9-18-14-63-14-122 0-99 18-163 63-227 23-34 78-87 89-87 4 0 13-6 20-12 12-12 38-26 91-47 56-24 247-39 281-23 12 5 41 16 66 23 62 18 137 64 178 107 75 81 126 248 101 332-4 14-13 44-20 68-7 23-16 42-21 42-4 0-8 7-8 16 0 26-106 123-164 150-92 42-295 71-311 44z m190-202 c104-38 156-139 127-244-16-55-43-88-100-122-42-24-57-27-132-26-84 0-138 16-191 57-60 45-80 173-38 246 50 90 212 133 334 89z"/>
    <path d="M15589 17470 c-31-4-67-14-79-23-12-8-116-107-230-220-115-113-212-207-217-210-4-3-8 97-8 221 l0 227-97 1-98 1 0-390 c0-360 1-391 18-403 23-18 81-17 123 0 19 8 134 114 267 246 207 205 267 254 247 203-3-9-8-112-12-229 l-6-214 106 0 107 0 0 383 c0 210-4 388-9 396-11 17-39 19-112 11z"/>
    <path d="M5524 17461 c-2-2-4-179-4-392 0-439-10-399 94-399 l63 0 124 121 c68 66 176 172 239 235 63 63 121 114 128 114 9 0 11-10 8-32-3-18-2-123 2-233 l7-200 95 0 95 0 3 399 2 399-92-5-93-5-228-227 c-126-124-233-226-238-226-5 0-9 93-9 225 0 173-3 225-12 226-40 4-180 3-184 0z"/>
    <path d="M6666 17458 c-8-26-14-135-7-145 3-6 128-14 299-19 l294-9 20-24 c13-17 17-33 13-50-12-47-21-51-131-51-58 0-106-4-109-10-3-6-53-10-114-10-59 0-111-4-117-8-5-5-28-15-52-22-76-24-122-105-122-217 0-99 34-159 113-201 l52-27 282-3 c347-4 343-5 343 93 0 40-5 67-12 72-7 4-136 10-287 13 l-274 5-20 28-21 27 21 28 c20 27 21 27 159 30 76 1 143 7 148 12 6 6 41 10 78 10 38 0 76 4 86 9 9 4 35 18 57 29 22 11 53 40 70 64 58 84 43 247-28 316-63 61-89 65-430 70-249 3-308 1-311-10z"/>
    <path d="M7997 17463 c-4-4-7-140-7-302 l1-296-166-3-166-2 3-88 3-87 435 0 435 0 3 73 c2 46-2 79-9 88-9 11-47 14-175 14 l-163 0-3 294 c-2 162-5 296-8 299-9 8-176 18-183 10z"/>
    <path d="M8810 17463 c0-5-3-182-6-395 l-6-388 296 0 c263 0 301 2 344 18 155 59 211 244 118 387-32 49-93 95-126 95-11 0-20 3-20 8 0 10 49 82 77 112 13 14 23 28 23 32 0 3 6 13 13 20 14 15 77 105 77 110 0 8-233-1-239-9-7-11-83-105-91-113-3-3-16-21-30-40-62-88-65-90-157-90 l-83 0-2 93 c-2 118-2 118-16 145-12 20-20 22-92 22-44 0-80-3-80-7z m551-458 c48-25 62-77 30-116-20-25-21-26-298-45 l-93-6 0 91 0 91 165 0 c130 0 172-3 196-15z"/>
    <path d="M10185 17463 c-85-17-131-39-175-82-97-95-110-149-110-466 l0-235 90 0 90 0 0 182 c0 332 33 407 184 423 89 10 136 0 178-38 59-53 70-110 75-374 l4-193 95 0 96 0-5 248 c-5 252-10 291-51 375-10 20-22 37-26 37-4 0-11 10-17 23-6 12-28 31-49 42-22 11-41 23-44 26-21 27-255 49-335 32z"/>
    <path d="M11310 17461 c-70-10-174-64-228-118-118-118-142-295-63-451 31-60 112-136 177-166 32-15 68-32 78-38 24-13 353-13 369 0 7 5 29 12 49 16 41 8 56 22 39 39-6 6-11 19-11 29 0 29-40 107-59 113-9 3-43-2-74-10-72-19-209-19-261-1-117 41-173 143-139 254 19 63 77 120 142 140 47 14 224 16 249 3 9-5 36-12 58-15 l41-7 39 75 c46 91 43 97-61 124-74 19-261 26-345 13z"/>
    <path d="M12360 17163 l0-303-154 0 c-85 0-161-3-170-6-13-5-16-23-16-90 l0-84 444 0 444 0 4 78 c2 42-1 83-5 90-7 9-57 12-188 12 l-179 0 1 303 0 302-90 0-91 0 0-302z"/>
    <path d="M13217 17078 l2-393 88 0 88 0 3 393 2 392-92 0-93 0 2-392z"/>
    <path d="M15980 17386 l0-86 43 0 c95 0 407-11 472-16 39-3 77-11 86-17 26-19 31-62 11-86-16-20-32-22-232-33-193-10-220-14-268-35-115-54-161-180-112-313 11-30 20-56 20-57 0-13 98-62 141-72 67-14 525-15 580 0 l37 9 0 69 c0 63-2 70-25 80-15 7-115 11-288 11-261 0-264 0-279 22-21 29-20 50 2 76 17 20 34 22 228 32 115 6 225 15 244 21 100 31 160 111 160 214 0 101-9 125-64 181-37 36-64 54-96 62-25 6-183 14-352 17 l-308 7 0-86z"/>
    <path d="M17090 15228 c-58-5-109-13-114-18-6-6-21-10-34-10-14 0-43-5-66-11-22-6-59-15-81-21-56-14-93-27-142-49-24-11-46-19-49-19-9 0-218-102-224-109-3-3-21-15-40-25-19-10-54-34-77-53-23-18-46-33-52-33-6 0-11-4-11-8 0-4-14-16-30-25-35-21-260-243-260-257 0-5-10-20-22-32-32-33-88-114-88-127 0-6-4-11-8-11-4 0-19-22-33-50-13-27-27-50-31-50-5 0-8-6-8-13 0-7-14-39-30-71-57-109-113-291-127-406-3-25-9-49-14-55-15-16-11-402 6-501 16-96 42-207 55-239 5-11 14-38 20-60 14-49 32-90 75-175 59-116 80-155 86-160 3-3 20-27 39-55 75-112 252-303 335-360 15-11 44-32 63-47 19-16 38-28 43-28 4 0 14-6 21-13 45-43 280-161 398-200 65-22 153-45 240-63 157-34 522-44 674-19 49 8 92 12 97 10 4-3 10-1 14 5 3 5 17 10 29 10 13 0 61 12 107 26 46 14 95 28 109 31 29 6 303 136 322 152 7 7 36 26 63 43 28 18 52 35 55 38 3 3 26 21 52 40 50 37 74 77 64 107-3 10-42 56-86 103-44 47-80 88-80 92 0 4-19 27-42 51-42 42-71 74-177 195-60 69-80 75-125 37-16-14-33-25-37-25-4 0-14-6-21-13-36-35-234-123-353-157-130-37-162-41-310-37-149 4-199 11-305 44-66 20-237 104-265 131-11 10-28 23-37 28-28 16-132 118-158 154-13 19-27 37-30 40-16 15-62 92-86 145-14 33-31 68-36 78-16 32-58 200-52 209 3 5 1 15-6 23-23 27-3 284 31 393 32 104 78 212 92 212 4 0 7 5 7 11 0 31 144 202 225 269 75 61 238 142 345 170 25 7 53 16 63 22 19 9 332 12 347 3 5-3 28-8 52-10 86-11 213-53 333-111 110-53 136-69 189-116 22-21 43-38 46-38 10 1 37 28 110 110 41 47 109 119 151 162 42 42 83 86 92 98 8 12 40 48 71 80 57 59 66 83 44 123-12 24-46 57-58 57-4 0-23 13-41 30-19 16-37 30-41 30-4 0-13 6-20 13-19 17-61 41-148 85-41 20-76 40-78 44-2 5-9 8-16 8-7 0-42 13-77 29-150 67-401 131-515 131-24 0-46 5-49 10-7 12-226 11-375-2z"/>
    <path d="M3265 15183 c-682-2-1213-7-1218-12-5-5-8-89-7-187 l1-178 29-46 c16-25 34-50 40-57 5-7 15-24 22-38 6-14 15-25 20-25 4 0 8-6 8-13 0-7 8-22 17-33 10-10 24-31 32-46 8-16 18-28 21-28 4 0 13-13 20-30 7-16 16-30 20-30 4 0 13-13 20-30 7-16 16-30 20-30 4 0 13-13 20-30 7-16 16-30 20-30 4 0 13-13 20-30 7-16 16-30 20-30 4 0 13-13 20-30 7-16 16-30 21-30 5 0 9-5 9-11 0-12 181-282 193-287 4-2 7-8 7-14 0-8 34-60 73-113 4-5 30-46 58-90 28-44 55-81 60-83 5-2 9-8 9-13 0-5 33-57 73-116 39-58 77-113 82-121 93-146 510-768 517-770 45-18-69-22-669-22-654 0-679-1-710-20-22-13-34-29-38-52-3-18-5-154-3-301 l3-269 28-24 28-24 1225 0 1224 0 20 33 c18 29 20 50 20 208 0 154-2 178-18 195-9 10-32 42-50 69-18 28-37 57-42 65-5 8-24 38-42 65-18 28-38 56-45 63-6 6-15 21-18 32-3 11-10 20-14 20-5 0-14 14-21 30-7 17-16 30-20 30-4 0-13 14-20 30-7 16-16 30-21 30-4 0-11 9-14 20-3 11-12 26-18 32-23 24-197 287-197 297 0 6-4 11-8 11-5 0-15 12-23 27-8 16-16 30-19 33-15 15-150 220-150 229 0 5-4 11-8 13-4 2-31 39-60 83-29 44-56 85-60 90-4 6-22 33-39 60-18 28-36 55-41 61-5 5-15 21-22 35-7 13-16 26-19 29-4 3-21 28-39 55-17 28-35 55-40 61-5 5-15 21-22 34-7 13-17 29-21 34-20 24-80 113-95 141-9 16-23 35-30 43-8 7-26 34-41 60-15 26-30 49-34 52-3 3-12 16-19 29-7 14-17 30-21 35-16 19-101 151-106 164-4 9 137 12 684 12 l690 0 22 24 c21 23 22 33 28 257 7 288 1 363-32 385-14 9-41 17-62 18-21 1-582 1-1248-1z"/>
    <path d="M6472 15160 c-52-49-52-47-51-683 l0-591-33-50 c-17-28-35-53-38-56-4-3-13-16-20-30-7-14-32-54-55-90-23-36-67-105-98-155-32-49-62-97-67-105-62-95-90-142-90-150 0-6-4-10-10-10-5 0-10-6-10-13 0-7-8-22-17-33-17-18-26-33-57-88-6-11-15-25-19-30-21-29-110-171-119-192-6-13-14-24-18-24-4 0-10-8-13-17-3-10-35-63-71-118-36-55-84-131-108-170-23-38-46-71-50-73-5-2-8-8-8-12 0-8-39-72-90-150-180-273-210-344-170-400 l21-30 388 0 388 0 30 47 c30 48 258 431 279 468 6 11 28 47 48 80 20 33 45 76 57 95 186 316 334 560 340 560 7 0 89-136 89-147 0-2 14-24 30-48 17-24 30-46 30-48 0-2 32-57 70-121 39-64 70-120 70-126 0-5 3-10 8-10 4 0 18-21 32-47 13-27 27-50 30-53 6-5 39-59 78-130 13-25 31-52 38-61 8-8 14-19 14-22 0-7 101-179 110-187 3-3 16-25 30-50 13-25 45-79 70-120 l46-75 394-3 c393-2 395-2 413 19 25 31 21 74-13 141-32 62-70 121-82 126-5 2-8 8-8 12 0 9-69 123-88 146-5 5-15 21-22 34-7 13-17 29-22 34-13 16-88 136-88 141 0 3-31 52-70 109-38 58-70 110-70 115 0 6-4 11-8 11-5 0-14 12-21 26-6 14-49 83-95 152-45 70-91 143-102 162-10 19-24 40-31 47-6 7-15 22-18 33-3 11-10 20-14 20-5 0-14 14-21 30-7 17-16 30-21 30-5 0-9 5-9 11 0 5-18 37-40 69-22 32-40 62-40 65 0 3-5 11-10 18-6 7-37 55-70 107-33 52-64 100-70 107-5 7-15 24-22 38-6 14-15 25-20 25-4 0-8 5-8 11 0 6-13 30-30 54-16 24-30 47-30 52 0 4-9 19-20 33-19 24-20 45-20 632 0 423-3 614-11 631-20 44-42 47-368 47-296 0-308-1-329-20z"/>
    <path d="M9105 15154 c-14-15-25-39-25-53 0-14 0-735 0-1601 l0-1575 21-18 c21-17 66-18 828-14 616 3 817 6 851 16 25 7 77 22 115 33 76 21 205 78 205 91 0 4 6 7 13 7 7 0 22 8 33 18 10 10 35 29 54 42 45 32 169 155 200 200 13 19 27 37 30 40 6 6 25 38 61 107 27 51 57 131 77 208 6 22 15 59 21 81 14 54 14 367 0 436-16 78-30 131-40 150-5 10-9 22-9 28 0 23-72 161-114 218-53 71-143 162-201 202-52 36-193 110-209 110-7 0-20 6-30 13-18 13-17 15 5 55 39 66 113 187 119 192 3 3 13 19 23 35 59 102 132 221 137 225 4 3 17 25 31 50 13 25 26 47 29 50 3 3 26 38 50 78 25 41 54 88 65 106 11 18 47 77 80 132 32 54 62 101 65 104 3 3 11 15 18 28 6 12 18 32 25 45 6 12 14 24 17 27 35 35 43 125 14 147-14 10-96 13-386 13 l-369 0-32-32 c-18-18-45-58-60-88-16-30-39-71-51-90-37-56-126-210-126-216 0-3-13-24-28-47-15-23-34-55-42-72-8-16-27-48-41-70-15-22-36-56-47-75-11-19-43-75-72-125-29-49-67-115-83-145-17-30-34-57-37-60-4-3-15-21-25-40-9-19-29-54-44-77 l-26-43-177 0-178 0 0 553 0 552-23 26 c-41 48-47 49-377 49 l-311 0-24-26z m1334-1794 c78-9 167-32 211-55 49-26 109-91 135-147 49-107 66-210 46-274-5-16-15-50-22-76-7-27-17-48-21-48-4 0-8-7-8-15 0-21-98-119-139-140-94-47-125-50-634-58 l-167-2 0 419 0 419 261-7 c144-4 296-11 338-16z"/>
    <path d="M12664 15168 c-33-15-43-48-44-145-1-48-1-762-1-1586 l1-1498 25-25 24-24 1069 2 c1002 3 1070 4 1086 20 31 32 36 79 36 364 l0 281-25 11 c-19 9-221 12-745 12 l-720 0 0 310 c0 241 3 310 13 310 6 0 281 1 609 3 463 3 601 7 613 17 13 11 15 55 15 303 0 264-2 291-17 303-15 11-136 13-625 14 l-608 0 0 330 0 330 623 1 c696 0 825 5 853 33 26 26 32 93 33 338 1 184-2 223-16 253-9 19-23 35-30 35-7 0-13 5-13 10 0 14-2127 12-2156-2z"/>
  </g>
</svg>